# Blender v2.80 (sub 75) OBJ File: 'grid_crossings.blend'
# www.blender.org
v -0.500000 0.375000 -0.500000
v -0.500000 -0.375000 -0.500000
v -0.500000 0.500000 -0.375000
v -0.500000 0.375000 -0.375000
v -0.500000 -0.375000 -0.375000
v -0.500000 -0.500000 -0.375000
v -0.375000 0.500000 -0.500000
v -0.375000 0.375000 -0.500000
v -0.375000 -0.375000 -0.500000
v -0.375000 -0.500000 -0.500000
v -0.375000 0.500000 -0.375000
v -0.375000 -0.250000 -0.375000
v -0.375000 -0.500000 -0.375000
v -0.375000 -0.250000 -0.250000
v -0.375000 -0.375000 -0.250000
v -0.250000 -0.125000 -0.375000
v -0.250000 -0.250000 -0.375000
v -0.250000 -0.375000 -0.375000
v -0.250000 -0.375000 -0.250000
v -0.125000 -0.250000 -0.375000
v -0.125000 0.000000 -0.125000
v -0.125000 0.125000 0.000000
v -0.125000 0.000000 0.000000
v 0.000000 0.125000 -0.125000
v 0.000000 0.000000 -0.125000
v 0.000000 -0.125000 -0.125000
v 0.000000 0.125000 0.000000
v 0.000000 0.000000 0.000000
v 0.000000 -0.125000 -0.000000
v 0.125000 0.250000 -0.375000
v 0.125000 0.000000 -0.125000
v 0.125000 0.000000 0.000000
v 0.125000 -0.125000 -0.000000
v 0.250000 0.375000 -0.375000
v 0.250000 0.250000 -0.375000
v 0.250000 0.125000 -0.375000
v 0.250000 0.375000 -0.250000
v 0.375000 0.500000 -0.500000
v 0.375000 0.375000 -0.500000
v 0.375000 -0.375000 -0.500000
v 0.375000 -0.500000 -0.500000
v 0.375000 0.500000 -0.375000
v 0.375000 0.250000 -0.375000
v 0.375000 -0.500000 -0.375000
v 0.375000 0.375000 -0.250000
v 0.375000 0.250000 -0.250000
v 0.500000 0.375000 -0.500000
v 0.500000 -0.375000 -0.500000
v 0.500000 0.500000 -0.375000
v 0.500000 0.375000 -0.375000
v 0.500000 -0.375000 -0.375000
v 0.500000 -0.500000 -0.375000
vn -0.7071 0.0000 0.7071
vn 0.0000 -0.0000 1.0000
vn 0.0000 0.7071 0.7071
vn 0.7071 0.7071 0.0000
vn -0.7071 -0.7071 0.0000
vn 0.0000 -0.7071 0.7071
vn 0.7071 0.0000 0.7071
vn 0.0000 0.0000 -1.0000
vn 0.0000 0.7071 -0.7071
vn -0.7071 0.0000 -0.7071
vn 0.7071 0.0000 -0.7071
vn 0.0000 -0.7071 -0.7071
vn -0.7071 0.7071 0.0000
vn 0.7071 -0.7071 -0.0000
s off
f 4//1 23//1 22//1 3//1
f 23//2 27//2 22//2
f 27//3 11//3 3//3 22//3
f 11//4 27//4 24//4 7//4
f 1//5 21//5 23//5 4//5
f 23//2 29//2 32//2 27//2
f 29//5 23//5 21//5 26//5
f 33//2 32//2 29//2
f 26//5 41//5 44//5 29//5
f 44//6 52//6 33//6 29//6
f 52//7 51//7 32//7 33//7
f 32//4 51//4 48//4 31//4
f 27//4 32//4 31//4 24//4
f 24//8 31//8 25//8
f 25//8 26//8 21//8
f 25//9 31//9 48//9 40//9
f 26//10 25//10 40//10 41//10
f 25//11 8//11 7//11 24//11
f 21//12 1//12 8//12 25//12
f 34//13 37//13 42//13 38//13
f 5//13 14//13 12//13 2//13
f 37//13 34//13 12//13 14//13
f 13//14 10//14 18//14 19//14
f 43//14 47//14 50//14 46//14
f 19//14 18//14 43//14 46//14
f 6//6 13//6 19//6 15//6
f 14//1 5//1 6//1 15//1
f 46//7 50//7 49//7 45//7
f 37//3 45//3 49//3 42//3
f 45//2 37//2 46//2
f 15//2 19//2 14//2
f 37//2 14//2 19//2 46//2
f 35//10 34//10 38//10 39//10
f 47//12 43//12 35//12 39//12
f 10//11 9//11 17//11 18//11
f 2//9 12//9 17//9 9//9
f 35//8 43//8 36//8
f 35//8 36//8 30//8
f 35//8 30//8 34//8
f 17//8 12//8 16//8
f 17//8 20//8 18//8
f 16//8 20//8 17//8
f 36//8 20//8 16//8 30//8
