# Blender v2.80 (sub 75) OBJ File: 'grid_crossings.blend'
# www.blender.org
v 0.250000 0.250000 -0.375000
v 0.250000 0.250000 -0.250000
v 0.250000 0.250000 0.250000
v 0.250000 0.250000 0.375000
v 0.250000 0.375000 -0.375000
v 0.250000 0.375000 -0.250000
v 0.250000 0.375000 0.250000
v 0.250000 0.375000 0.375000
v 0.250000 0.375000 0.500000
v 0.375000 0.250000 -0.375000
v 0.375000 0.250000 -0.250000
v 0.375000 0.250000 0.250000
v 0.375000 0.250000 0.375000
v 0.375000 0.250000 0.500000
v 0.375000 0.375000 -0.500000
v 0.375000 0.375000 -0.250000
v 0.375000 0.375000 0.250000
v 0.375000 0.375000 0.500000
v 0.375000 0.500000 -0.500000
v 0.375000 0.500000 -0.375000
v 0.375000 0.500000 0.375000
v 0.375000 0.500000 0.500000
v 0.500000 0.375000 -0.500000
v 0.500000 0.375000 -0.375000
v 0.500000 0.375000 0.375000
v 0.500000 0.375000 0.500000
v 0.500000 0.500000 -0.375000
v 0.500000 0.500000 0.375000
vn 0.7071 -0.7071 0.0000
vn -0.7071 0.7071 0.0000
vn 0.0000 -0.7071 0.7071
vn -0.7071 0.0000 0.7071
vn 0.0000 0.7071 -0.7071
vn 0.7071 0.0000 -0.7071
vn 0.7071 0.0000 0.7071
vn 0.0000 0.7071 0.7071
vn -0.7071 0.0000 -0.7071
vn 0.0000 -0.7071 -0.7071
vn 0.0000 -1.0000 0.0000
vn -1.0000 0.0000 0.0000
vn 0.0000 1.0000 0.0000
vn 1.0000 0.0000 0.0000
s off
f 13//1 12//1 25//1 26//1
f 8//2 22//2 21//2 7//2
f 4//3 13//3 26//3 18//3
f 22//4 8//4 4//4 18//4
f 7//5 21//5 28//5 17//5
f 12//6 17//6 28//6 25//6
f 16//7 11//7 24//7 27//7
f 6//8 16//8 27//8 20//8
f 5//2 6//2 20//2 19//2
f 11//1 10//1 23//1 24//1
f 1//9 5//9 19//9 15//9
f 23//10 10//10 1//10 15//10
f 3//11 12//11 13//11 4//11
f 2//11 1//11 10//11 11//11
f 12//11 3//11 2//11 11//11
f 2//12 3//12 7//12 6//12
f 5//12 1//12 2//12 6//12
f 8//12 7//12 3//12 4//12
f 7//13 17//13 16//13 6//13
f 12//14 11//14 16//14 17//14
