# Blender v2.80 (sub 75) OBJ File: 'grid_crossings.blend'
# www.blender.org
v -0.500000 0.250000 0.250000
v -0.500000 0.250000 0.375000
v -0.500000 0.250000 0.500000
v -0.500000 0.375000 0.250000
v -0.500000 0.500000 0.250000
v -0.375000 0.375000 0.375000
v -0.375000 0.375000 0.500000
v -0.375000 0.500000 0.375000
v -0.250000 0.500000 0.500000
vn -0.7071 0.0000 0.7071
vn 0.7071 -0.7071 0.0000
vn -0.7071 0.7071 0.0000
s off
f 5//1 4//1 6//1 8//1
f 6//1 4//1 1//1
f 9//1 8//1 6//1
f 3//2 2//2 6//2 7//2
f 6//3 1//3 2//3
f 6//3 7//3 9//3
